<mxfile host="app.diagrams.net" agent="Mozilla/5.0 (Windows NT 10.0; Win64; x64) AppleWebKit/537.36 (KHTML, like Gecko) Chrome/127.0.0.0 Safari/537.36" version="24.7.7">
  <diagram name="Page-1" id="qPcuMZVzECM_a_yU7FNV">
    <mxGraphModel dx="881" dy="772" grid="1" gridSize="10" guides="1" tooltips="1" connect="1" arrows="1" fold="1" page="1" pageScale="1" pageWidth="850" pageHeight="1100" math="0" shadow="0">
      <root>
        <mxCell id="0" />
        <mxCell id="1" parent="0" />
        <mxCell id="PxNLMrmcn-pHpXfkx-1Y-1" value="ToDoList 관리 프로그램" style="shape=umlFrame;whiteSpace=wrap;html=1;pointerEvents=0;" parent="1" vertex="1">
          <mxGeometry x="140" y="80" width="640" height="520" as="geometry" />
        </mxCell>
        <mxCell id="PxNLMrmcn-pHpXfkx-1Y-17" style="edgeStyle=orthogonalEdgeStyle;rounded=0;orthogonalLoop=1;jettySize=auto;html=1;exitX=1;exitY=0.3333333333333333;exitDx=0;exitDy=0;exitPerimeter=0;entryX=0;entryY=0.5;entryDx=0;entryDy=0;" parent="1" target="PxNLMrmcn-pHpXfkx-1Y-10" edge="1">
          <mxGeometry relative="1" as="geometry">
            <mxPoint x="231" y="230" as="sourcePoint" />
            <Array as="points">
              <mxPoint x="270" y="230" />
              <mxPoint x="270" y="231" />
              <mxPoint x="300" y="231" />
              <mxPoint x="300" y="315" />
            </Array>
          </mxGeometry>
        </mxCell>
        <mxCell id="PxNLMrmcn-pHpXfkx-1Y-19" style="edgeStyle=orthogonalEdgeStyle;rounded=0;orthogonalLoop=1;jettySize=auto;html=1;exitX=1;exitY=0.3333333333333333;exitDx=0;exitDy=0;exitPerimeter=0;entryX=0;entryY=0.5;entryDx=0;entryDy=0;" parent="1" target="PxNLMrmcn-pHpXfkx-1Y-9" edge="1">
          <mxGeometry relative="1" as="geometry">
            <mxPoint x="231" y="230" as="sourcePoint" />
            <Array as="points">
              <mxPoint x="231" y="231" />
              <mxPoint x="300" y="231" />
              <mxPoint x="300" y="396" />
            </Array>
          </mxGeometry>
        </mxCell>
        <mxCell id="PxNLMrmcn-pHpXfkx-1Y-44" style="edgeStyle=orthogonalEdgeStyle;rounded=0;orthogonalLoop=1;jettySize=auto;html=1;exitX=1;exitY=0.3333333333333333;exitDx=0;exitDy=0;exitPerimeter=0;entryX=0;entryY=0.5;entryDx=0;entryDy=0;" parent="1" source="PxNLMrmcn-pHpXfkx-1Y-2" target="PxNLMrmcn-pHpXfkx-1Y-11" edge="1">
          <mxGeometry relative="1" as="geometry" />
        </mxCell>
        <mxCell id="PxNLMrmcn-pHpXfkx-1Y-2" value="대학생" style="shape=umlActor;verticalLabelPosition=bottom;verticalAlign=top;html=1;" parent="1" vertex="1">
          <mxGeometry x="78" y="215" width="30" height="60" as="geometry" />
        </mxCell>
        <mxCell id="PxNLMrmcn-pHpXfkx-1Y-4" value="학사시스템&lt;br&gt;정보 조회" style="ellipse;whiteSpace=wrap;html=1;" parent="1" vertex="1">
          <mxGeometry x="341" y="215" width="100" height="50" as="geometry" />
        </mxCell>
        <mxCell id="PxNLMrmcn-pHpXfkx-1Y-5" value="등록 정보 수정" style="ellipse;whiteSpace=wrap;html=1;" parent="1" vertex="1">
          <mxGeometry x="491" y="340" width="100" height="50" as="geometry" />
        </mxCell>
        <mxCell id="PxNLMrmcn-pHpXfkx-1Y-6" value="숨겨진 항목을&lt;br&gt;다시 보이기" style="ellipse;whiteSpace=wrap;html=1;" parent="1" vertex="1">
          <mxGeometry x="651" y="421" width="100" height="50" as="geometry" />
        </mxCell>
        <mxCell id="PxNLMrmcn-pHpXfkx-1Y-7" value="완료항목을&lt;br&gt;숨기기" style="ellipse;whiteSpace=wrap;html=1;" parent="1" vertex="1">
          <mxGeometry x="651" y="350" width="100" height="50" as="geometry" />
        </mxCell>
        <mxCell id="PxNLMrmcn-pHpXfkx-1Y-27" style="edgeStyle=orthogonalEdgeStyle;rounded=0;orthogonalLoop=1;jettySize=auto;html=1;exitX=1;exitY=0.5;exitDx=0;exitDy=0;entryX=0;entryY=0.5;entryDx=0;entryDy=0;" parent="1" source="PxNLMrmcn-pHpXfkx-1Y-8" target="PxNLMrmcn-pHpXfkx-1Y-7" edge="1">
          <mxGeometry relative="1" as="geometry" />
        </mxCell>
        <mxCell id="PxNLMrmcn-pHpXfkx-1Y-28" style="edgeStyle=orthogonalEdgeStyle;rounded=0;orthogonalLoop=1;jettySize=auto;html=1;exitX=1;exitY=0.5;exitDx=0;exitDy=0;entryX=0;entryY=0.5;entryDx=0;entryDy=0;" parent="1" source="PxNLMrmcn-pHpXfkx-1Y-8" target="PxNLMrmcn-pHpXfkx-1Y-6" edge="1">
          <mxGeometry relative="1" as="geometry" />
        </mxCell>
        <mxCell id="PxNLMrmcn-pHpXfkx-1Y-29" style="edgeStyle=orthogonalEdgeStyle;rounded=0;orthogonalLoop=1;jettySize=auto;html=1;exitX=1;exitY=0.5;exitDx=0;exitDy=0;entryX=0;entryY=0.5;entryDx=0;entryDy=0;" parent="1" source="PxNLMrmcn-pHpXfkx-1Y-8" target="PxNLMrmcn-pHpXfkx-1Y-13" edge="1">
          <mxGeometry relative="1" as="geometry" />
        </mxCell>
        <mxCell id="PxNLMrmcn-pHpXfkx-1Y-8" value="ToDoList 작성" style="ellipse;whiteSpace=wrap;html=1;" parent="1" vertex="1">
          <mxGeometry x="491" y="421" width="100" height="50" as="geometry" />
        </mxCell>
        <mxCell id="PxNLMrmcn-pHpXfkx-1Y-22" style="edgeStyle=orthogonalEdgeStyle;rounded=0;orthogonalLoop=1;jettySize=auto;html=1;exitX=1;exitY=0.5;exitDx=0;exitDy=0;entryX=0;entryY=0.5;entryDx=0;entryDy=0;" parent="1" source="PxNLMrmcn-pHpXfkx-1Y-9" target="PxNLMrmcn-pHpXfkx-1Y-5" edge="1">
          <mxGeometry relative="1" as="geometry" />
        </mxCell>
        <mxCell id="PxNLMrmcn-pHpXfkx-1Y-24" style="edgeStyle=orthogonalEdgeStyle;rounded=0;orthogonalLoop=1;jettySize=auto;html=1;exitX=1;exitY=0.5;exitDx=0;exitDy=0;entryX=0;entryY=0.5;entryDx=0;entryDy=0;" parent="1" source="PxNLMrmcn-pHpXfkx-1Y-9" target="PxNLMrmcn-pHpXfkx-1Y-8" edge="1">
          <mxGeometry relative="1" as="geometry" />
        </mxCell>
        <mxCell id="PxNLMrmcn-pHpXfkx-1Y-26" style="edgeStyle=orthogonalEdgeStyle;rounded=0;orthogonalLoop=1;jettySize=auto;html=1;exitX=1;exitY=0.5;exitDx=0;exitDy=0;entryX=0;entryY=0.5;entryDx=0;entryDy=0;" parent="1" source="PxNLMrmcn-pHpXfkx-1Y-9" target="PxNLMrmcn-pHpXfkx-1Y-12" edge="1">
          <mxGeometry relative="1" as="geometry" />
        </mxCell>
        <mxCell id="PxNLMrmcn-pHpXfkx-1Y-9" value="ToDo항목을 등록" style="ellipse;whiteSpace=wrap;html=1;" parent="1" vertex="1">
          <mxGeometry x="341" y="371" width="100" height="50" as="geometry" />
        </mxCell>
        <mxCell id="PxNLMrmcn-pHpXfkx-1Y-10" value="수강과목 등록" style="ellipse;whiteSpace=wrap;html=1;" parent="1" vertex="1">
          <mxGeometry x="341" y="290" width="100" height="50" as="geometry" />
        </mxCell>
        <mxCell id="PxNLMrmcn-pHpXfkx-1Y-11" value="로그인" style="ellipse;whiteSpace=wrap;html=1;" parent="1" vertex="1">
          <mxGeometry x="160" y="210" width="100" height="50" as="geometry" />
        </mxCell>
        <mxCell id="PxNLMrmcn-pHpXfkx-1Y-12" value="중요 ToDo 항목&lt;br&gt;&amp;nbsp;별도 표시" style="ellipse;whiteSpace=wrap;html=1;" parent="1" vertex="1">
          <mxGeometry x="491" y="501" width="100" height="50" as="geometry" />
        </mxCell>
        <mxCell id="PxNLMrmcn-pHpXfkx-1Y-13" value="ToDoList 정렬" style="ellipse;whiteSpace=wrap;html=1;" parent="1" vertex="1">
          <mxGeometry x="651" y="492" width="100" height="50" as="geometry" />
        </mxCell>
        <mxCell id="PxNLMrmcn-pHpXfkx-1Y-15" style="edgeStyle=orthogonalEdgeStyle;rounded=0;orthogonalLoop=1;jettySize=auto;html=1;entryX=0;entryY=0.3;entryDx=0;entryDy=0;entryPerimeter=0;" parent="1" target="PxNLMrmcn-pHpXfkx-1Y-4" edge="1">
          <mxGeometry relative="1" as="geometry">
            <mxPoint x="260" y="230" as="sourcePoint" />
          </mxGeometry>
        </mxCell>
        <mxCell id="PxNLMrmcn-pHpXfkx-1Y-20" value="" style="endArrow=classic;html=1;rounded=0;exitX=1.02;exitY=0.66;exitDx=0;exitDy=0;exitPerimeter=0;entryX=0.02;entryY=0.26;entryDx=0;entryDy=0;entryPerimeter=0;" parent="1" source="PxNLMrmcn-pHpXfkx-1Y-10" target="PxNLMrmcn-pHpXfkx-1Y-5" edge="1">
          <mxGeometry width="50" height="50" relative="1" as="geometry">
            <mxPoint x="481" y="430" as="sourcePoint" />
            <mxPoint x="531" y="380" as="targetPoint" />
          </mxGeometry>
        </mxCell>
        <mxCell id="PxNLMrmcn-pHpXfkx-1Y-38" value="정보 삭제" style="ellipse;whiteSpace=wrap;html=1;" parent="1" vertex="1">
          <mxGeometry x="616" y="216" width="100" height="50" as="geometry" />
        </mxCell>
        <mxCell id="PxNLMrmcn-pHpXfkx-1Y-39" value="정보 추가" style="ellipse;whiteSpace=wrap;html=1;" parent="1" vertex="1">
          <mxGeometry x="616" y="145" width="100" height="50" as="geometry" />
        </mxCell>
        <mxCell id="PxNLMrmcn-pHpXfkx-1Y-40" style="edgeStyle=orthogonalEdgeStyle;rounded=0;orthogonalLoop=1;jettySize=auto;html=1;exitX=1;exitY=0.5;exitDx=0;exitDy=0;entryX=0;entryY=0.5;entryDx=0;entryDy=0;" parent="1" target="PxNLMrmcn-pHpXfkx-1Y-39" edge="1">
          <mxGeometry relative="1" as="geometry">
            <mxPoint x="556" y="241" as="sourcePoint" />
          </mxGeometry>
        </mxCell>
        <mxCell id="PxNLMrmcn-pHpXfkx-1Y-41" style="edgeStyle=orthogonalEdgeStyle;rounded=0;orthogonalLoop=1;jettySize=auto;html=1;exitX=0.5;exitY=0;exitDx=0;exitDy=0;entryX=0;entryY=0.5;entryDx=0;entryDy=0;" parent="1" source="PxNLMrmcn-pHpXfkx-1Y-5" target="PxNLMrmcn-pHpXfkx-1Y-38" edge="1">
          <mxGeometry relative="1" as="geometry">
            <mxPoint x="556" y="241" as="sourcePoint" />
          </mxGeometry>
        </mxCell>
        <mxCell id="PxNLMrmcn-pHpXfkx-1Y-42" style="edgeStyle=orthogonalEdgeStyle;rounded=0;orthogonalLoop=1;jettySize=auto;html=1;exitX=1;exitY=0.5;exitDx=0;exitDy=0;entryX=0;entryY=0.5;entryDx=0;entryDy=0;" parent="1" target="PxNLMrmcn-pHpXfkx-1Y-43" edge="1">
          <mxGeometry relative="1" as="geometry">
            <mxPoint x="556" y="241" as="sourcePoint" />
          </mxGeometry>
        </mxCell>
        <mxCell id="PxNLMrmcn-pHpXfkx-1Y-43" value="정보 변경" style="ellipse;whiteSpace=wrap;html=1;" parent="1" vertex="1">
          <mxGeometry x="616" y="287" width="100" height="50" as="geometry" />
        </mxCell>
      </root>
    </mxGraphModel>
  </diagram>
</mxfile>
